PathFileType	4	(X/Y/Z)	Patient4_TMGait_0pt6_02_left_38.trc.trc
DataRate	CameraRate	NumFrames	NumMarkers	Units	OrigDataRate	OrigDataStartFrame	OrigNumFrames
82.352941176471	82.352941176471	4	33	mm	82.352941176471	36	       141
Frame#	Time	Sacral			L.Shoulder			Chest			R.Shoulder			Neck			R.ASIS			L.ASIS			R.Thigh.Superior			R.Thigh.Lateral			R.Thigh.Inferior			R.Patella			L.Thigh.Superior			L.Thigh.Lateral			L.Thigh.Inferior			L.Patella			L.Shank.Superior			L.Shank.Lateral			L.Shank.Inferior			R.Shank.Superior			R.Shank.Lateral			R.Shank.Inferior			R.Heel			R.Midfoot.Superior			R.Midfoot.Lateral			R.Toe			L.Heel			L.Midfoot.Lateral			L.Midfoot.Superior			L.Toe			L.Elbow			L.Wrist			R.Elbow			R.Wrist			
		X1	Y1	Z1	X2	Y2	Z2	X3	Y3	Z3	X4	Y4	Z4	X5	Y5	Z5	X6	Y6	Z6	X7	Y7	Z7	X8	Y8	Z8	X9	Y9	Z9	X10	Y10	Z10	X11	Y11	Z11	X12	Y12	Z12	X13	Y13	Z13	X14	Y14	Z14	X15	Y15	Z15	X16	Y16	Z16	X17	Y17	Z17	X18	Y18	Z18	X19	Y19	Z19	X20	Y20	Z20	X21	Y21	Z21	X22	Y22	Z22	X23	Y23	Z23	X24	Y24	Z24	X25	Y25	Z25	X26	Y26	Z26	X27	Y27	Z27	X28	Y28	Z28	X29	Y29	Z29	X30	Y30	Z30	X31	Y31	Z31	X32	Y32	Z32	X33	Y33	Z33	

36	46.805000000000	822.669558024637	1012.270021926896	494.297185143909	1019.787052254277	1441.901009510240	343.066419683171	1120.330395819566	1352.907209746294	495.215255755427	1043.812460048323	1423.160644020023	673.811473421652	1032.024975671829	1490.883323342461	495.862340243321	1041.943679178884	936.345302941417	615.952199748673	1036.314090321872	958.670632634056	341.601151160618	1045.215006345294	725.435431344575	597.604415879863	938.930431426904	632.580307246451	654.009620641373	1012.274824132193	562.461169247654	586.572898353636	991.606303883362	465.255425662688	600.413582023971	1100.077542389653	765.243054855654	378.166854900751	1035.443862832962	638.557095120772	310.197781732164	1127.386246378340	571.659476561150	377.800448313886	1137.030574949806	500.384729343275	385.985016911009	1115.461717326883	426.521604773942	376.804320479811	1037.347442088980	306.821316558143	319.872052265594	1093.122798632058	198.340571866764	391.690850390856	929.116609904523	393.564344124678	602.541609917512	817.127568171569	325.748741225792	653.285622819424	834.074084564948	216.828594924913	600.561151104413	659.358529348438	84.756174844663	560.015787921905	835.287404482274	101.488829318553	602.172742523229	736.471178263968	54.507278126536	634.170940543039	941.521726497991	36.866490139320	630.317485525234	972.683865347274	38.419961418958	424.113389544645	1051.823974365734	36.962169819514	348.635446659838	1132.429672684382	97.943081037043	381.421574497605	1262.966807035939	45.767048672551	361.474654989333	892.532603640429	1125.692046551408	201.757066891553	993.033072453697	882.837098520165	178.934220138845	997.678858441158	1081.832308890673	794.333630107549	1184.863912526032	918.038401121798	728.062340256660	
37	46.817142857143	823.130568467316	1013.005241516878	491.586530874990	1020.449015643262	1442.522041674785	340.263858800349	1120.903273424748	1353.783034843609	492.596482691053	1044.120527450785	1424.190112206784	671.077061216232	1032.457671021997	1491.578359376704	493.009079736053	1042.356511165565	937.094784795756	613.320732783222	1036.963048451026	959.317521198210	339.097669510067	1047.987313803972	726.258491887386	595.608573955417	943.368226677456	632.373545363606	652.721904480316	1017.866801085949	562.713960244156	585.440213226352	998.006970864959	463.960816750732	600.852869478432	1099.908234488564	764.775573655634	375.171728283472	1032.819734934932	638.200516690856	308.784928242722	1124.470614955128	570.676981420614	376.044720832108	1133.475571328967	499.651302365117	385.170997638077	1111.423694015181	425.867946284902	376.178057743954	1032.636607712057	306.653521042909	319.202641244456	1086.986724572442	197.949599572072	391.663971937616	933.193302071917	393.436187261266	602.748040099809	819.282018071102	328.838303251171	653.385385274552	833.383451100822	219.293912090240	601.295438820369	654.798501790882	92.579492959893	560.947374782598	831.235266033673	102.620519869736	603.252005553997	730.807581345354	58.729614939144	634.631292430490	934.506886383288	36.560368057914	630.218842611607	965.402204311842	38.385612454687	424.076249150337	1044.530927440302	36.890156459425	348.581606768678	1125.201459970419	97.806104967764	381.428480436455	1255.746973015722	45.418488928355	361.395397598144	894.385504534444	1126.035366497522	198.396348462001	998.317573259856	884.385605408370	178.395748003101	991.933684056097	1083.879691559790	792.087806475858	1173.105470107962	909.847218311807	733.596250263325	
38	46.829285714286	823.451773146974	1013.615069890309	488.931259363224	1021.106651512371	1443.060670241446	337.469961721846	1121.395340339940	1354.577128507139	490.031933246208	1044.252910567299	1425.073144314050	668.376628900926	1032.772791098819	1492.175043978545	490.183481843012	1042.669000514494	937.805324217658	610.743594973886	1037.527666718172	959.810112628863	336.669273518502	1051.341877101293	727.200787495828	593.722747966001	948.668128807094	632.053003905293	651.517226535689	1024.449150981138	563.028583387476	584.332402859093	1005.471143815479	462.740068761597	601.176869917753	1099.510742517083	764.057034646139	372.367548198446	1030.137466378528	637.785804820366	307.399988605796	1121.375168498332	569.656616560402	374.480093499723	1129.733367110173	498.845250907495	384.382140527753	1107.208429495142	425.147417916043	375.533255464602	1027.740733984293	306.391453542198	318.592323345438	1080.740739313626	197.506913704101	391.659439431611	938.376045883888	393.327585191444	602.946324623416	822.598356826419	332.172596910447	653.589313825479	833.566864407789	222.104972240150	602.105065454265	651.059072668668	101.630657928792	562.004138975799	827.678660240556	104.025616295042	604.431339583533	725.576237837079	63.864659049626	635.180510213212	927.448997888078	36.153417271027	630.191439903769	958.052551096477	38.336307662249	424.070652736685	1037.184265575121	36.794238767668	348.571893878550	1117.935863386592	97.616996118657	381.500899868488	1248.482627949169	44.984943593279	361.408839135597	896.126095719192	1126.404152433492	194.950126990592	1004.062151717492	886.301655971386	178.014295433828	986.303860659595	1085.845373617467	789.869188547176	1160.628685640803	901.908184578068	739.173852687886	
39	46.841428571429	823.594670117692	1014.091600825962	486.366730514878	1021.754399490091	1443.491823847229	334.709257788201	1121.793611125906	1355.250645646888	487.544342741164	1044.218306813872	1425.803399755826	665.728136564176	1032.980781590821	1492.659102167499	487.405277712917	1042.847208056252	938.442809596009	608.241536173960	1037.956298413106	960.147118516161	334.311056199496	1055.249252411612	728.309968012142	591.930182638350	954.836652307347	631.670110318012	650.396734341706	1032.006853215462	563.465919711488	583.233701600304	1013.994959215219	461.672456728982	601.336134317152	1098.878011568414	763.175369081631	369.832922527552	1027.531623061097	637.381441705220	306.008719405835	1118.176632277206	568.650113045528	373.113473461190	1125.870624812693	497.996104272176	383.593872355253	1102.880729900795	424.380454957766	374.856089102107	1022.730681970571	306.065994721720	317.996597608069	1074.429986470094	197.031700632703	391.645837779408	944.681478309566	393.293737074307	603.093711803492	827.118467315852	335.793564486693	653.868503963668	834.687831186299	225.324746394278	602.963345624743	648.329307390061	112.020642102977	563.157092935973	824.679876713373	105.810737257626	605.707311575301	720.895071746946	70.055538148964	635.808466667808	920.358492167030	35.580887704258	630.273789814287	950.667993547043	38.284173792065	424.074869573569	1029.811547660194	36.691018307321	348.578860819192	1110.653342833088	97.404606482533	381.601133689630	1241.195590342400	44.512337024540	361.473991342401	897.839722649837	1126.746534361456	191.425747765296	1010.299921102657	888.566395903201	177.789607336370	980.788193474130	1087.716502362943	787.702408411735	1147.475991575584	894.314037640996	744.704114861317	
